# xmcd
#
# Track frame offsets: 
#        150
#        15626
#        31690
#        53916
#        70982
#        87470
#        108347
#        132789
#        146192
#        162000
#        177317
#        197087
#        213257
#        230481
#        249458
#        270644
#        286617
#        303763
#
# Disc length: 4276 seconds
#
# Revision: 0
# Processed by: cddbd v1.5.1PL0 Copyright (c) Steve Scherf et al.
# Submitted via: ExactAudioCopy v0.95a3
#
DISCID=f510b212
DTITLE=Various Artist - Пляжная Дискотека
DYEAR=2001
DGENRE=Pop
TTITLE0=Bosson - On In A Million
TTITLE1=Диско Мафия - Летняя Пора
TTITLE2=Captain Jack - Iko Iko (Viva Espania Club Mix)
TTITLE3=Дискотека Авария - Яйца
TTITLE4=Lou Bega - Gentleman (Alternative Radio Edit)
TTITLE5=S. Int. - Я Буду Жить
TTITLE6=Modern Talking - Last Exit To Brooklyn (XXL Mix) (Feat. Eric S
TTITLE6=inglenton)
TTITLE7=Филипп Киркоров - Pum! Ja Me Ha Dado
TTITLE8=Yamboo - Bai, Bai, Bai
TTITLE9=A-Europa - Юрмала
TTITLE10=Лариса Черникова - Пляж
TTITLE11=Монокини - Сидим На Облаках
TTITLE12=Tarkan - Kuzu Kuzu
TTITLE13=Марианна and Dj - Чико-Бармен
TTITLE14=Амазонка - Мальчик Дорогой
TTITLE15=Karapuzikee - Лето
TTITLE16=El Cielo - La Nueva Guaracheria (Beach Party Mix)
TTITLE17=Горячие Головы - Банзай
EXTD=
EXTT0=
EXTT1=
EXTT2=
EXTT3=
EXTT4=
EXTT5=
EXTT6=
EXTT7=
EXTT8=
EXTT9=
EXTT10=
EXTT11=
EXTT12=
EXTT13=
EXTT14=
EXTT15=
EXTT16=
EXTT17=
PLAYORDER=
